<?xml version="1.0" encoding="utf-8"?>
<!-- Generator: Adobe Illustrator 16.2.1, SVG Export Plug-In . SVG Version: 6.00 Build 0)  -->
<svg version="1.1" xmlns="http://www.w3.org/2000/svg" xmlns:xlink="http://www.w3.org/1999/xlink" x="0px" y="0px" width="24px" height="24px" viewBox="0 0 24 24">
<g>
	<path d="M9,3c3.309,0,6,2.691,6,6s-2.691,6-6,6s-6-2.691-6-6S5.691,3,9,3 M9,1C4.582,1,1,4.582,1,9c0,4.417,3.582,8,8,8 s8-3.583,8-8C17,4.582,13.418,1,9,1L9,1z"/>
	<rect x="16.879" y="15.464" transform="matrix(0.7071 -0.7071 0.7071 0.7071 -7.8701 19)" width="4.243" height="7.071"/>
</g>
</svg>
