<?xml version="1.0" encoding="utf-8"?>
<!-- Generator: Adobe Illustrator 17.1.0, SVG Export Plug-In . SVG Version: 6.00 Build 0)  -->
<!DOCTYPE svg PUBLIC "-//W3C//DTD SVG 1.1//EN" "http://www.w3.org/Graphics/SVG/1.1/DTD/svg11.dtd">
<svg version="1.1" id="Layer_1" xmlns="http://www.w3.org/2000/svg" xmlns:xlink="http://www.w3.org/1999/xlink" x="0px" y="0px"
 width="128px" height="128px" viewBox="0 0 128 128" enable-background="new 0 0 128 128" xml:space="preserve">

<!-- First path draws the outside edge, two pixels wide for visiblity when inverted -->
	<path class="primary" stroke-width="2" stroke="black" fill="white"
		d="
		M61,13
		v-8h6v8 a51,51,0,0,1,48,48
		h8v6h-8 a51,51,0,0,1,-48,48
		v8h-6v-8 a51,51,0,0,1,-48,-48
		h-8v-6h8 a51,51,0,0,1,48,-48"/>

<!-- Second outer path needed to fill the main body, without this the whole image
 is filled black-->
	<path class="secondary" stroke-width="1" stroke="black" fill="black"
		d="
		M62,14
		v-8h4v8 a50,50,0,0,1,48,48
		h8v4h-8 a50,50,0,0,1,-48,48
		v8h-4v-8 a50,50,0,0,1,-48,-48
		h-8v-4h8 a50,50,0,0,1,48,-48"/>

<!-- This draws the four segments of the middle ring-->
	<path class="primary" stroke-width="1"
		stroke="black" fill="white"
		d="M68,20 a44,44,0,0,1,40,40 h-12 a32,32,0,0,0,-28,-28 v-12
		M108,68 a-44,44,0,0,1,-40,40 v-12 a32,32,0,0,0,28,-28, h12
		M60,108 a-44,-44,0,0,1,-40,-40 h12 a32,32,0,0,0,28,28, v12
		M20,60 a44,-44,0,0,1,40,-40 v12 a32,32,0,0,0,-28,28 h-12"/>

<!-- This draws the central section -->
	<path class="primary" stroke-width="1"
		stroke="black" fill="white"
		d="M68,36 a28,28,0,0,1,24,24 h-16v8h16
			 a-28,28,0,0,1,-24,24 v-16h-8v16
			 a-28,-28,0,0,1,-24,-24 h16v-8h-16
			 a28,28,0,0,1,24,-24 v16h8v-16"/>
</svg>
